HIERARCHY
ROOT Hips
{
	OFFSET	0.00	0.00	0.00
	CHANNELS 6 Xposition Yposition Zposition Zrotation Xrotation Yrotation
	JOINT LeftUpLeg
	{
		OFFSET	 0.126116	-0.065224	 0.014019
		CHANNELS 3 Zrotation Xrotation Yrotation
		JOINT LeftLeg
		{
			OFFSET	 0.000000	 0.569914	 0.000000
			CHANNELS 3 Zrotation Xrotation Yrotation
			JOINT LeftFoot
			{
				OFFSET	 0.000000	 0.544423	 0.000000
				CHANNELS 3 Zrotation Xrotation Yrotation
				JOINT LeftToeBase
				{
					OFFSET	 0.000000	 0.207117	 0.000000
					CHANNELS 3 Zrotation Xrotation Yrotation
					End Site
					{
						OFFSET	 0.000000	 0.207117	 0.000000
					}
				}
			}
		}
	}
	JOINT RightUpLeg
	{
		OFFSET	-0.124023	-0.065224	 0.008373
		CHANNELS 3 Zrotation Xrotation Yrotation
		JOINT RightLeg
		{
			OFFSET	 0.000000	 0.570047	 0.000000
			CHANNELS 3 Zrotation Xrotation Yrotation
			JOINT RightFoot
			{
				OFFSET	 0.000000	 0.544354	 0.000000
				CHANNELS 3 Zrotation Xrotation Yrotation
				JOINT RightToeBase
				{
					OFFSET	 0.000000	 0.207540	 0.000000
					CHANNELS 3 Zrotation Xrotation Yrotation
					End Site
					{
						OFFSET	 0.000000	 0.207540	 0.000000
					}
				}
			}
		}
	}
	JOINT Spine
	{
		OFFSET	 0.000184	 0.117403	 0.007763
		CHANNELS 3 Zrotation Xrotation Yrotation
		JOINT Spine1
		{
			OFFSET	 0.000000	 0.137269	 0.000000
			CHANNELS 3 Zrotation Xrotation Yrotation
			JOINT Spine2
			{
				OFFSET	 0.000000	 0.156879	 0.000000
				CHANNELS 3 Zrotation Xrotation Yrotation
				JOINT LeftShoulder
				{
					OFFSET	 0.080501	 0.160143	 0.002496
					CHANNELS 3 Zrotation Xrotation Yrotation
					JOINT LeftArm
					{
						OFFSET	 0.000000	 0.164363	 0.000000
						CHANNELS 3 Zrotation Xrotation Yrotation
						JOINT LeftForeArm
						{
							OFFSET	 0.000000	 0.364576	 0.000000
							CHANNELS 3 Zrotation Xrotation Yrotation
							JOINT LeftHand
							{
								OFFSET	 0.000000	 0.360812	 0.000000
								CHANNELS 3 Zrotation Xrotation Yrotation
								JOINT LeftHandIndex1
								{
									OFFSET	 0.000000	 0.086006	 0.000000
									CHANNELS 3 Zrotation Xrotation Yrotation
									JOINT LeftHandIndex2
									{
										OFFSET	 0.000000	 0.047237	 0.000000
										CHANNELS 3 Zrotation Xrotation Yrotation
										JOINT LeftHandIndex3
										{
											OFFSET	-0.004284	 0.038165	 0.000551
											CHANNELS 3 Zrotation Xrotation Yrotation
											End Site
											{
												OFFSET	-0.004284	 0.038165	 0.000551
											}
										}
									}
								}
							}
						}
					}
				}
				JOINT Neck
				{
					OFFSET	 0.000000	 0.176489	 0.000000
					CHANNELS 3 Zrotation Xrotation Yrotation
					JOINT Head
					{
						OFFSET	 0.000000	 0.077941	 0.001747
						CHANNELS 3 Zrotation Xrotation Yrotation
						End Site
						{
							OFFSET	 0.000000	 0.077941	 0.001747
						}
					}
				}
				JOINT RightShoulder
				{
					OFFSET	-0.080363	 0.159706	-0.000306
					CHANNELS 3 Zrotation Xrotation Yrotation
					JOINT RightArm
					{
						OFFSET	 0.000000	 0.164196	 0.000000
						CHANNELS 3 Zrotation Xrotation Yrotation
						JOINT RightForeArm
						{
							OFFSET	 0.000000	 0.365611	 0.000000
							CHANNELS 3 Zrotation Xrotation Yrotation
							JOINT RightHand
							{
								OFFSET	 0.000000	 0.360648	 0.000000
								CHANNELS 3 Zrotation Xrotation Yrotation
								JOINT RightHandIndex1
								{
									OFFSET	 0.000000	 0.069977	 0.000000
									CHANNELS 3 Zrotation Xrotation Yrotation
									JOINT RightHandIndex2
									{
										OFFSET	 0.000000	 0.052305	 0.000000
										CHANNELS 3 Zrotation Xrotation Yrotation
										JOINT RightHandIndex3
										{
											OFFSET	 0.009002	 0.042196	 0.000782
											CHANNELS 3 Zrotation Xrotation Yrotation
											End Site
											{
												OFFSET	 0.009002	 0.042196	 0.000782
											}
										}
									}
								}
							}
						}
					}
				}
			}
		}
	}
}
MOTION
Frames:    12
Frame Time: 0.03333334
-0.033651	 1.209934	-3.076751	-3.489962	 0.564063	 178.312800	 178.832400	 28.099520	-31.473920	 3.939055	-27.396470	 0.035687	 0.719461	 64.485660	 15.429460	 1.392549	 29.727420	-2.756811	 165.727700	 9.376683	 18.997610	-9.960894	-66.505180	-2.062988	 10.841630	 47.232120	-5.198418	-5.411870	 56.037220	 10.095540	-2.882407	 7.941012	-13.975670	 2.510103	 2.367131	-2.008419	-3.848512	-2.868914	 11.099970	-121.342200	 4.629095	 92.647350	-16.981570	 51.122920	 17.285590	 7.228458	-0.252563	-1.740185	 1.023537	 10.598530	 3.801086	 4.391603	 20.296470	-1.583345	-5.866112	 25.009580	 2.769206	 5.549866	 9.521141	-0.084552	-0.129875	-5.187885	-0.596814	-2.293244	-2.033118	-1.590591	 119.228100	 0.912488	-91.290510	-23.499650	 45.227450	 7.136776	-7.129411	-0.187932	 1.720534	-22.513010	 10.367180	-25.915210	-2.785561	 26.256250	 1.506434	 16.154640	 46.089940	-12.297880	-8.529183	 23.948070	-1.224836
-0.036708	 1.250382	-3.299578	-2.458292	 0.791608	-175.962400	 177.848900	 17.666100	-25.855440	 4.491303	-30.574400	 2.446025	-3.637413	 74.472600	 14.486060	 1.436671	 30.290140	-2.776685	 165.101500	 29.118010	 24.646320	-8.673730	-63.498920	 0.624584	-3.174075	 56.284720	 3.001035	-1.752339	 33.755910	 4.200027	-1.396724	 7.586902	-10.467080	 2.496672	 2.191417	-2.815482	-2.946804	-2.566090	 8.144430	-121.780200	 6.250602	 93.480950	 9.061363	 47.759890	 0.479613	 7.500592	-0.251605	-1.947237	 6.534312	-6.739045	-6.216818	 4.671302	 19.424930	-1.705525	-5.862584	 22.004490	 2.432655	 5.345366	 4.664239	-0.163193	-0.175524	-4.850923	-0.207744	-2.556874	-1.805610	-1.200731	 118.782800	 0.241655	-90.957860	-5.054694	 49.257500	-3.085019	-7.471558	-0.189941	 1.927432	-11.486330	 7.669282	-29.885880	-2.621342	 27.147120	 1.427141	 16.275060	 46.516560	-12.477470	-8.524768	 24.911780	-1.289425
-0.034162	 1.253273	-3.504063	-2.570925	-1.516905	-172.957200	 177.591000	 8.794080	-22.382180	 4.280867	-29.386710	 6.571009	 11.602650	 82.312830	-4.897311	 1.551305	 31.723630	-2.830157	 168.900800	 29.563600	 29.818180	-0.954582	-12.492610	 9.596074	-8.628559	 49.269000	-1.649879	-1.680344	 33.201420	 3.231854	-1.596188	 6.053468	-3.220683	 1.637539	 3.254683	-2.745943	-1.926942	-3.856934	 4.443602	-121.451000	 8.428319	 94.545200	 29.679510	 38.174550	-8.494654	 7.900826	-0.258691	-2.132575	 14.890100	-17.285160	-4.786078	 4.685231	 19.623830	-1.721801	-5.862514	 22.039020	 2.436477	 5.348407	 4.735809	-0.161901	-0.176057	-4.859986	 0.083034	-1.908585	-2.567784	-1.998552	 118.253300	-0.693703	-90.507550	 8.819253	 52.741940	-11.052610	-7.753727	-0.190696	 2.113899	-6.857063	 5.017861	-27.616980	-1.973266	 22.739620	 1.098973	 15.116410	 41.909800	-10.672000	-8.535284	 20.686620	-1.010067
-0.025351	 1.224621	-3.753339	-2.481928	-2.363377	-171.422700	 179.759800	-2.982732	-19.317390	 4.259334	-29.263540	 6.705515	 3.289149	 87.351740	-2.223986	 2.313831	 40.224710	-3.246114	 168.584000	 38.965750	 29.292880	-0.347862	-4.616197	 11.052360	-7.555063	 52.870920	-4.631369	-1.748731	 34.086450	 2.926881	-1.467165	 5.222031	 2.848929	 1.231323	 4.287796	-2.796986	-1.048884	-4.859749	 0.970205	-121.214900	 9.394597	 95.004260	 39.680370	 29.170430	-13.556390	 8.077747	-0.256434	-2.290582	 20.588820	-16.712610	-2.793385	 4.871266	 20.061800	-1.813372	-5.861701	 22.682150	 2.507872	 5.385906	 5.618365	-0.146404	-0.159102	-4.972682	 0.242676	-1.500021	-2.876123	-2.312436	 118.204900	-1.353183	-90.203690	 19.866500	 52.499530	-16.624770	-7.946210	-0.189529	 2.271951	-4.472978	 3.358864	-26.897270	-1.576148	 16.808880	 0.919270	 14.021880	 36.113020	-8.734043	-8.515553	 15.017780	-0.646644
-0.011714	 1.187054	-3.908578	-1.592767	-1.301401	-169.312800	-176.299300	-18.386940	-15.891390	 3.168438	-22.636060	 3.163929	-22.570060	 69.714330	 18.378350	 5.566527	 61.923880	-4.960471	 170.775400	 38.909120	 25.295610	-0.353570	-4.691854	 10.935230	-12.702790	 46.332290	-4.165209	-1.828995	 35.016300	 2.968780	-0.657748	 5.350701	 8.155046	 0.596553	 3.717933	-2.569418	 0.216029	-4.542034	-2.944498	-121.038900	 9.264788	 94.921050	 40.717270	 28.355990	-14.824030	 8.328647	-0.257719	-2.449597	 24.494770	-11.597990	 0.234998	 5.064131	 20.640600	-1.918041	-5.862642	 23.944970	 2.649047	 5.454748	 7.249142	-0.119242	-0.118669	-5.153376	 0.290824	-1.514817	-2.033855	-2.443188	 118.730400	-2.156611	-89.843060	 26.852990	 49.665910	-18.749940	-8.189200	-0.190253	 2.431420	-3.579235	 3.844176	-24.086440	-1.508900	 10.108930	 0.895504	 13.171650	 29.825200	-6.922385	-8.452957	 8.825386	-0.255910
 0.002471	 1.211805	-4.141377	-0.266427	 0.820385	-170.825700	-169.714400	-1.169961	-21.271910	 11.038000	-55.305360	 10.861590	-26.332420	 66.753540	 22.801780	 4.080101	 54.240920	-3.728975	 177.412600	 26.355300	 21.816910	-0.374015	-4.961763	 7.061100	-17.899000	 45.060620	 1.271963	-1.648740	 32.900010	 2.876327	-0.432827	 6.562652	 18.497510	-0.975872	 2.805407	-0.432741	 1.788576	-3.758307	-6.703080	-120.626400	 8.303960	 94.407820	 30.080130	 37.625110	-10.174880	 8.540384	-0.257002	-2.610053	 23.590450	-1.677991	 12.520610	 5.018419	 22.374920	-2.008843	-5.869733	 25.706150	 2.848413	 5.551073	 9.550488	-0.084108	-0.021581	-5.070436	 0.071166	-1.766461	-1.368807	-3.783302	 119.454200	-1.633834	-90.100240	 15.684640	 49.405390	-11.353780	-8.490385	-0.193157	 2.591563	-6.498502	 3.348983	-6.757532	-1.970241	 12.837710	 1.104556	 13.498570	 32.513060	-7.666917	-8.476524	 10.718590	-0.375220
 0.011672	 1.236275	-4.356968	 0.640729	 2.189845	-173.861600	-163.160900	 14.469420	-30.604460	 24.708970	-72.406700	 24.242310	-19.107750	 63.304300	 19.620940	 1.886653	 35.454980	-2.883963	-179.332200	 18.111610	 21.382060	-0.870482	-11.422420	 2.652914	-20.809170	 53.662300	 10.068530	-1.480751	 30.836240	 2.795667	-0.735440	 7.519835	 27.291970	-2.101353	 2.889097	 1.765533	 2.809345	-3.633767	-9.310777	-120.197900	 7.507728	 93.983400	 17.985360	 44.285970	-3.896696	 8.625640	-0.252146	-2.739573	 19.520500	 3.591324	 26.457320	 4.987486	 24.175350	-2.107807	-5.881491	 27.227260	 3.023271	 5.635666	 11.585890	-0.056106	 0.069959	-4.935210	-0.160662	-1.871940	-1.392227	-5.100739	 119.967600	-0.700147	-90.555830	 0.984086	 47.646340	-1.844995	-8.676831	-0.193316	 2.720431	-7.078211	-0.394378	 9.285217	-2.404630	 17.219530	 1.336071	 14.116570	 36.694110	-8.914983	-8.507708	 13.942410	-0.578565
 0.013984	 1.257305	-4.570457	-0.243293	 1.194397	-176.618000	-162.509300	 31.550420	-42.004960	 16.163490	-64.539200	 12.376670	-6.678832	 67.621230	 14.297440	 1.447194	 30.423480	-2.781488	 179.773200	 13.141100	 20.831850	-1.706210	-21.602310	-0.747215	-32.944670	 66.040560	 25.499070	-1.695235	 33.455590	 2.899605	-2.036165	 6.482590	 33.855400	-2.958225	 3.535505	 3.945475	 3.310376	-4.170878	-11.066390	-120.137400	 6.162976	 93.327930	 1.937886	 49.643250	 6.646899	 8.766212	-0.250815	-2.856847	 16.349220	 2.774694	 40.699760	 5.037418	 26.535890	-2.164949	-5.907421	 29.372830	 3.274843	 5.732873	 13.934890	-0.027358	 0.109704	-4.833092	-0.423871	-2.339950	-2.015822	-6.100503	 119.742900	 0.420802	-91.081810	-17.313630	 42.488400	 6.891363	-8.995678	-0.199225	 2.836797	-7.561153	-7.529047	 19.883190	-2.712463	 19.004360	 1.473497	 14.444660	 38.575220	-9.519563	-8.520988	 15.888950	-0.701925
 0.011443	 1.260138	-4.691209	-1.432397	-0.070358	-178.923500	-172.399500	 31.315800	-42.624660	 4.506885	-30.661180	-1.249906	-9.785943	 67.202360	 21.759080	 1.316837	 28.747670	-2.723652	 178.293700	 10.298280	 19.595240	-2.078824	-25.753190	-3.693710	-48.442500	 70.332570	 42.143470	-1.968402	 36.584070	 3.044221	-3.193093	 5.159863	 37.332460	-3.377413	 4.280204	 5.134777	 3.460492	-4.773895	-12.110420	-120.167900	 4.910748	 92.724270	-9.496380	 51.746910	 14.343170	 8.920867	-0.251861	-2.951890	 11.042460	-0.006962	 50.276820	 5.097912	 28.658450	-2.208914	-5.941074	 31.323960	 3.509448	 5.818230	 16.000720	-0.005240	 0.134038	-4.752251	-0.654594	-2.811383	-2.646708	-6.825942	 119.417300	 1.416737	-91.537910	-28.060780	 37.465590	 9.488912	-9.238017	-0.203398	 2.931508	-10.900940	-14.648280	 24.469430	-2.951329	 20.034620	 1.573447	 14.666350	 39.744590	-9.911134	-8.527986	 17.308290	-0.792364
 0.006016	 1.233161	-4.874084	-1.925850	-0.604678	 179.002800	-179.920800	 33.062360	-36.747940	 0.646925	-4.868936	-6.332626	-11.569130	 59.672910	 27.383910	 1.261290	 28.017550	-2.700093	 176.236800	 6.445517	 18.117280	-3.184059	-36.452180	-7.557068	-61.067150	 72.669820	 61.479960	-2.903273	 45.538520	 3.573474	-3.656994	 4.156886	 39.402190	-3.946153	 4.661573	 6.575360	 3.774132	-4.936677	-13.040360	-119.842800	 3.785341	 92.161840	-24.260640	 52.302170	 23.116790	 9.022215	-0.250275	-3.046117	 9.655361	-4.849073	 58.198620	 4.949708	 28.424270	-2.024276	-5.977450	 32.970610	 3.712454	 5.916956	 18.386740	 0.016593	 0.087030	-4.877323	-0.765270	-2.641647	-2.932037	-7.517423	 119.455700	 1.778716	-91.711320	-38.044590	 35.843640	 13.796380	-9.275405	-0.199749	 3.026168	-6.985382	-22.003040	 25.453270	-2.953358	 21.225390	 1.571502	 14.977630	 41.269260	-10.441760	-8.533007	 18.863160	-0.892074
-0.002196	 1.200656	-5.014946	-2.211759	-0.820755	 177.158800	-179.821500	 36.130360	-32.987270	 0.664810	-5.002768	-11.506700	-32.298580	 65.291990	 45.686280	 1.229941	 27.601300	-2.687089	 173.909200	 6.021667	 16.371020	-4.721778	-47.589720	-11.306850	-61.328500	 73.434750	 68.558000	-4.303972	 55.238420	 4.557528	-3.938056	 3.444009	 39.239580	-4.015379	 4.537736	 6.948936	 3.897527	-4.722980	-13.637490	-119.458700	 2.789142	 91.666380	-30.195120	 52.919990	 24.137800	 9.187814	-0.252765	-3.128821	 4.051944	-8.631132	 62.563060	 4.763778	 27.587840	-1.799488	-6.015108	 34.392170	 3.891891	 6.010964	 20.647770	 0.033530	 0.025059	-5.045694	-0.834699	-2.315815	-3.090843	-8.080511	 119.585800	 1.940924	-91.796100	-40.204910	 39.404160	 12.926650	-9.322279	-0.196985	 3.109837	-8.962413	-30.627080	 24.033870	-2.891077	 22.353920	 1.540552	 15.306500	 42.751920	-10.981730	-8.535141	 20.317180	-0.986061
-0.014501	 1.194544	-5.182539	-3.474157	-0.367772	 176.787700	 177.454700	 31.734320	-32.442920	 0.674365	-5.074413	-4.737289	-6.335738	 57.836270	 23.450070	 1.320550	 28.796140	-2.725249	 170.766500	 2.153365	 14.908610	-5.553192	-52.151530	-4.620816	-2.958056	 63.592960	 13.286320	-7.341502	 62.783240	 10.707290	-5.129444	 3.993145	 37.024900	-4.709741	 4.273143	 7.310045	 4.081708	-4.885586	-14.016340	-120.169700	 3.391150	 91.983660	-31.983550	 52.726740	 27.366170	 9.281965	-0.252274	-3.202297	 4.234793	-8.571255	 63.858060	 4.547709	 23.915910	-1.644419	-5.925335	 30.482170	 3.407495	 5.833645	 16.373840	-0.001552	-0.042791	-5.147853	-0.772708	-2.151508	-2.748713	-8.207923	 119.459600	 1.532436	-91.595050	-35.300090	 41.324460	 11.589860	-9.343787	-0.193833	 3.183832	-5.690348	-26.559820	 26.057290	-2.828155	 23.818620	 1.516806	 15.659170	 44.216810	-11.540970	-8.534678	 21.814820	-1.083758
